<svg width="249" height="47" viewBox="0 0 249 47" fill="none" xmlns="http://www.w3.org/2000/svg">
<g clip-path="url(#clip0_1_73)">
<path d="M12.0276 40.1275H2.00483L7.95155 46.1443H17.9757V26.3484L12.0276 20.3316V40.1275Z" fill="#4CE0C3"/>
<path d="M31.4151 2.02844V40.7589H22.944L28.895 46.1443H37.3661V7.41383L31.4151 2.02844Z" fill="#FF5E5E"/>
<path d="M16.4213 8.04522L10.4745 2.02844L21.3811 21.8344L27.3278 27.8512L16.4213 8.04522Z" fill="#FF5E5E"/>
<path d="M19.3777 0V19.8059L8.47112 0H0V43.2702H10.0242V23.4743L20.9378 43.2702H29.4089V0H19.3777Z" fill="white"/>
<path d="M62.915 13.3906C62.2577 12.712 61.4427 12.211 60.5445 11.9336C60.3591 11.8751 60.1705 11.8274 59.9797 11.7907C59.5709 11.7104 59.1553 11.6702 58.7387 11.6707C58.4458 11.6724 58.1533 11.6948 57.8634 11.7379L57.6657 11.765C57.3978 11.8093 57.1332 11.8718 56.8737 11.9521L56.8144 11.9721C56.5881 12.0523 56.3673 12.1478 56.1536 12.2578L55.9884 12.3378C55.7603 12.4562 55.5396 12.5888 55.3277 12.7349L55.2416 12.8049C55.0582 12.9427 54.8829 13.0911 54.7164 13.2492L54.5879 13.3692L54.4989 13.4563C54.4072 13.5492 54.3168 13.6463 54.2321 13.7506C54.1474 13.8549 54.1262 13.8749 54.074 13.9406C54.0657 13.951 54.0581 13.962 54.0514 13.9734L53.9384 14.1163L53.7972 14.3063C53.7577 14.3591 53.721 14.4163 53.6843 14.4705L53.5713 14.6405L53.5318 14.7034V14.7234C53.512 14.7534 53.4923 14.7834 53.4753 14.8134C53.4584 14.8434 53.409 14.9234 53.3793 14.9805C53.3497 15.0377 53.3172 15.0877 53.2876 15.1448L53.1986 15.3091C53.169 15.3662 53.1393 15.4234 53.1125 15.4791C53.1029 15.5006 53.0921 15.5216 53.08 15.5419V15.5591C53.0631 15.5891 53.0504 15.6191 53.0377 15.649C53.025 15.679 52.9812 15.7633 52.9558 15.8233L52.8795 15.9976C52.8527 16.0576 52.8301 16.1147 52.8033 16.1747L52.7313 16.3547L52.6918 16.4519C52.6936 16.4574 52.6936 16.4634 52.6918 16.469C52.6933 16.4824 52.6916 16.496 52.687 16.5087C52.6823 16.5213 52.6748 16.5327 52.6649 16.5419L52.5958 16.729L52.5266 16.919C52.504 16.9861 52.4842 17.0533 52.4602 17.1161L52.3939 17.3304L52.3642 17.4304V17.4504C52.3588 17.4804 52.3498 17.5097 52.3374 17.5375C52.3374 17.5646 52.295 17.6804 52.2753 17.7475L52.216 17.9675L52.1567 18.1975C52.1369 18.2746 52.1171 18.3517 52.1002 18.4317C52.0983 18.4407 52.0983 18.4499 52.1002 18.4589V18.4732C52.0833 18.536 52.0705 18.6003 52.0536 18.6632C52.0367 18.726 52.0169 18.8303 52.0014 18.9174C51.9858 19.0046 51.9647 19.0874 51.9491 19.1746L51.8997 19.4317V19.5488C51.8943 19.6017 51.8853 19.6542 51.8729 19.7059C51.8729 19.7559 51.8404 19.8959 51.8263 19.9916C51.8122 20.0874 51.7966 20.1816 51.7839 20.2773C51.7712 20.3731 51.7543 20.4773 51.7444 20.5773C51.7429 20.5916 51.7429 20.6059 51.7444 20.6202V20.653L51.7148 20.8902C51.7148 20.9944 51.6922 21.1001 51.6823 21.2044C51.6724 21.3087 51.6597 21.4287 51.6498 21.5387C51.6493 21.6057 51.6437 21.6726 51.6329 21.7387V21.8815C51.6372 21.9934 51.6296 22.1055 51.6103 22.2158L51.5905 22.5901V25.5899C51.5921 25.6041 51.5921 25.6185 51.5905 25.6327V25.7256C51.5905 25.8499 51.6075 25.9756 51.6173 26.0998C51.618 26.2227 51.6269 26.3454 51.6442 26.467C51.6632 26.5875 51.674 26.7092 51.6766 26.8312C51.6865 26.9512 51.6992 27.0484 51.7133 27.1655C51.7187 27.2779 51.7329 27.3897 51.7557 27.4998C51.7726 27.604 51.7853 27.7197 51.7981 27.834L51.8475 28.1683C51.8644 28.2754 51.8799 28.3826 51.8997 28.5026C51.8956 28.5555 51.9048 28.6085 51.9265 28.6568C51.9534 28.7068 51.9265 28.6797 51.9265 28.6897C51.9254 28.7309 51.9331 28.7718 51.9491 28.8097C51.9661 28.9097 51.9858 29.0097 52.0056 29.1111C52.0254 29.2125 52.048 29.3111 52.072 29.4082C52.096 29.5054 52.1143 29.6025 52.1383 29.6939C52.1623 29.7853 52.1807 29.8839 52.2075 29.9796L52.2371 30.1039V30.1339C52.2417 30.1776 52.2527 30.2205 52.2696 30.261C52.2823 30.3039 52.319 30.441 52.3459 30.531C52.3727 30.621 52.3981 30.711 52.4277 30.7981C52.4574 30.8853 52.4842 30.9753 52.5096 31.0624C52.535 31.1495 52.5718 31.2395 52.6014 31.3267C52.631 31.4138 52.6311 31.4138 52.648 31.4538V31.4809L52.6875 31.5881L52.7864 31.8452C52.8231 31.9352 52.8626 32.0252 52.9021 32.1123C52.9417 32.1995 52.9784 32.2895 53.0179 32.3766C53.0574 32.4637 53.104 32.5609 53.1506 32.6466L53.1732 32.6966C53.1749 32.7041 53.1749 32.7119 53.1732 32.7194L53.2918 32.9466C53.344 33.0466 53.4005 33.1437 53.457 33.2323C53.5389 33.3751 53.625 33.518 53.7182 33.6494C53.7379 33.6822 53.7648 33.7122 53.7874 33.7465L53.8862 33.8808C54.1014 34.1875 54.3398 34.477 54.5992 34.7465L60.5431 40.7604C60.2628 40.503 60.0032 40.2236 59.7666 39.9247L59.6677 39.7819C59.4445 39.4467 59.2427 39.0974 59.0635 38.7362C59.0645 38.7286 59.0645 38.7209 59.0635 38.7134C58.8674 38.3178 58.6921 37.912 58.5382 37.4977V37.4749C58.3778 37.0368 58.2401 36.5905 58.126 36.1378V36.1078C58.0074 35.6507 57.9043 35.1821 57.8154 34.7008C57.8172 34.6899 57.8172 34.6788 57.8154 34.6679C57.7293 34.1808 57.6572 33.6851 57.6008 33.1808C57.5443 32.6766 57.5019 32.1809 57.4751 31.6538C57.4767 31.6395 57.4767 31.6252 57.4751 31.6109C57.4483 31.0995 57.4356 30.5824 57.4356 30.0667C57.4356 29.6853 57.4356 29.3082 57.4582 28.924V28.9011C57.4582 28.534 57.4949 28.1654 57.5245 27.8026V27.7583C57.5542 27.3912 57.5909 27.0269 57.6375 26.6698V26.6398C57.6841 26.2755 57.7363 25.9141 57.7998 25.5613V25.5342C57.862 25.1799 57.9326 24.8285 58.0144 24.4885C58.0963 24.1485 58.1867 23.82 58.2855 23.4886V23.4729C58.3844 23.1453 58.4945 22.8277 58.6159 22.5201V22.5001C58.7387 22.1929 58.8672 21.8958 59.0056 21.6115V21.5915C59.1468 21.3058 59.2964 21.0373 59.4574 20.7759V20.753C59.6152 20.5002 59.7863 20.2561 59.9699 20.0216V20.0016C60.1443 19.7829 60.3329 19.5763 60.5346 19.3831L60.6603 19.2631C60.827 19.1042 61.0034 18.9558 61.1883 18.8189L61.2702 18.7517C61.4812 18.603 61.702 18.4689 61.9309 18.3503L62.0961 18.2703C62.3099 18.1629 62.5307 18.0704 62.7569 17.9932L62.8162 17.9703C63.0754 17.8894 63.3401 17.8278 63.6082 17.7861C63.6749 17.7726 63.7423 17.7625 63.8101 17.7561C64.1024 17.7208 64.3968 17.7064 64.6911 17.7132C65.1066 17.7119 65.5212 17.7511 65.9293 17.8303C66.12 17.8675 66.3085 17.9152 66.494 17.9732C67.3916 18.2519 68.2064 18.7527 68.8645 19.4302L62.915 13.3906Z" fill="#4CE0C3"/>
<path d="M83.7624 27.3941V26.407C83.765 26.2962 83.7594 26.1855 83.7455 26.0756C83.7285 25.9656 83.7285 25.8542 83.7186 25.7413V25.6199C83.7203 25.61 83.7203 25.5998 83.7186 25.5899V25.4099C83.7129 25.2969 83.7007 25.1843 83.6819 25.0728L83.6424 24.7428C83.6352 24.6285 83.6196 24.5148 83.5958 24.4028C83.5789 24.29 83.5633 24.1728 83.5436 24.06C83.5238 23.9471 83.5139 23.8829 83.497 23.7943V23.7171C83.4584 23.4829 83.4113 23.2491 83.3558 23.0158L83.2075 22.6586C83.1807 22.5401 83.1511 22.4187 83.1214 22.3015C83.0918 22.1844 83.072 22.103 83.0452 22.0058V21.9887C83.0468 21.9721 83.0468 21.9553 83.0452 21.9387C83.0127 21.8173 82.9788 21.693 82.9421 21.5716C82.9054 21.4501 82.8701 21.3173 82.8292 21.193C82.7882 21.0687 82.7501 20.9387 82.7063 20.8116C82.6626 20.6845 82.6174 20.5488 82.5652 20.4188C82.5556 20.3726 82.5399 20.3279 82.5186 20.2859C82.5172 20.2712 82.5172 20.2564 82.5186 20.2416C82.4889 20.1674 82.4621 20.0902 82.4367 20.0174L82.2785 19.6117L82.0668 19.1717C82.0047 19.0289 81.9383 18.876 81.8719 18.7317L81.8126 18.6132L81.79 18.5603C81.7435 18.466 81.7011 18.3675 81.6489 18.2646C81.5698 18.0989 81.4837 17.9361 81.3976 17.7732C81.3114 17.6104 81.2126 17.419 81.1152 17.2475C81.0757 17.1761 81.0333 17.1047 80.9924 17.0404L80.9331 16.9333C80.8808 16.8447 80.83 16.7561 80.7777 16.6704C80.6366 16.449 80.5038 16.2305 80.3542 16.0105C80.2624 15.8676 80.1622 15.7391 80.0718 15.6019C80.0252 15.5334 79.9801 15.4591 79.9306 15.3977L79.7895 15.202C79.5014 14.8077 79.1988 14.4301 78.8816 14.0692C78.4173 13.5349 77.9207 13.0302 77.3949 12.5578L71.4511 7.23529C71.9868 7.70447 72.4919 8.20835 72.9631 8.74377C73.3283 9.16946 73.6761 9.61181 74.0065 10.0708L74.1477 10.2751C74.4517 10.7065 74.7378 11.1498 75.0061 11.605L75.0682 11.7079C75.3506 12.2021 75.616 12.7078 75.8603 13.2221C75.8588 13.2317 75.8601 13.2416 75.8642 13.2505C75.8682 13.2594 75.8747 13.2669 75.8829 13.2721C76.1319 13.798 76.3534 14.3368 76.5464 14.8863V14.9305C76.7483 15.4862 76.929 16.0576 77.0815 16.6333V16.6504C77.2331 17.2418 77.362 17.8332 77.4684 18.4246V18.4575C77.5714 19.0489 77.6505 19.6545 77.7027 20.2645V20.2945C77.7554 20.9078 77.7818 21.5268 77.7818 22.1515C77.7818 22.7763 77.7554 23.3953 77.7027 24.0086C77.65 24.6238 77.571 25.2318 77.4655 25.8327C77.3625 26.4241 77.2312 27.0155 77.0787 27.6069V27.6241C76.9243 28.2154 76.746 28.7868 76.5436 29.3382V29.3654C76.3389 29.9239 76.1116 30.4739 75.8631 31.0096V31.0281C75.6118 31.5662 75.3379 32.09 75.0414 32.5995C75.037 32.6093 75.0313 32.6184 75.0244 32.6266C74.7304 33.1365 74.4094 33.6301 74.063 34.1051C73.7175 34.5898 73.3486 35.0579 72.9561 35.5093C72.8869 35.5921 72.8008 35.6836 72.7189 35.775C72.637 35.8664 72.5636 35.9435 72.4817 36.0293L72.3095 36.2121C72.1683 36.355 72.0116 36.5078 71.8478 36.6678L71.7659 36.7478L71.6769 36.8306C71.5471 36.9487 71.4115 37.0701 71.2703 37.1949L71.0882 37.3492L70.7084 37.6449L70.491 37.8163L70.0674 38.132L69.8458 38.292C69.6481 38.4348 69.4363 38.5705 69.2189 38.7091L69.1427 38.7591C68.8984 38.9134 68.6443 39.0548 68.376 39.2148C68.2998 39.2591 68.2137 39.3005 68.1346 39.3448C67.9398 39.4519 67.7449 39.5548 67.5402 39.6548L67.2098 39.7976C67.0122 39.8919 66.8103 39.9804 66.6027 40.069L66.2724 40.2119C66.0352 40.309 65.7867 40.3976 65.5396 40.4861L65.2784 40.5804C64.9481 40.6961 64.5852 40.8018 64.2181 40.9032C64.1391 40.9232 64.0529 40.9418 63.9711 40.9647C63.683 41.0399 63.3894 41.108 63.0901 41.1689L62.6834 41.2489C62.4166 41.2961 62.1455 41.3432 61.8674 41.3818C61.7191 41.4061 61.5709 41.4261 61.4184 41.4432C61.1276 41.4789 60.8311 41.5046 60.5261 41.5318L60.1026 41.6346C59.6564 41.6618 59.2004 41.6789 58.7288 41.6789C57.6079 41.6807 56.4884 41.5966 55.3799 41.4275C53.5328 41.1489 51.7367 40.5948 50.0502 39.7833C49.5551 39.5424 49.093 39.2919 48.6637 39.0319C48.2317 38.7748 47.8279 38.5091 47.458 38.242C47.0881 37.9749 46.7521 37.7092 46.4344 37.4492C46.2791 37.3192 46.1309 37.192 45.9925 37.0649L51.9364 42.3874C52.0776 42.5146 52.2188 42.6417 52.3826 42.7717C52.6932 43.0317 53.0433 43.2974 53.4033 43.5645C53.7634 43.8316 54.1756 44.0973 54.6091 44.3545C55.0425 44.6116 55.5014 44.8659 55.9955 45.1058C57.6809 45.9134 59.475 46.4645 61.3196 46.7415C62.429 46.9107 63.5494 46.9947 64.6713 46.9929C65.1401 46.9929 65.5961 46.9757 66.0422 46.9486L66.4658 46.9157C66.7698 46.8919 67.0672 46.8624 67.3581 46.8272C67.5106 46.81 67.6588 46.7886 67.8071 46.7658C68.0894 46.7272 68.3549 46.6829 68.6231 46.6329L69.0297 46.5558C69.3304 46.49 69.6241 46.4229 69.9107 46.3486L70.162 46.2872C70.5249 46.1872 70.8792 46.0801 71.2181 45.9644L71.475 45.8729C71.7264 45.7844 71.9734 45.693 72.212 45.5944C72.3278 45.5501 72.4337 45.503 72.5424 45.4515C72.75 45.363 72.9518 45.2744 73.1495 45.1801L73.4799 45.0373L74.0743 44.7416C74.1562 44.6973 74.2395 44.6559 74.3157 44.6116C74.5825 44.4687 74.8409 44.3159 75.0852 44.1559L75.1543 44.1116C75.376 43.9688 75.5779 43.8159 75.7883 43.6831L76.0057 43.5259C76.1469 43.416 76.2965 43.3131 76.4292 43.206L76.6438 43.0345C76.7766 42.9317 76.905 42.8246 77.0265 42.7217L77.2044 42.5703C77.3455 42.446 77.4867 42.3217 77.6138 42.2032L77.6999 42.126L77.7691 42.0546C77.9308 41.913 78.084 41.7618 78.2279 41.6018L78.2844 41.5489C78.3268 41.5018 78.3607 41.4632 78.403 41.4218C78.4849 41.3332 78.5654 41.2475 78.6374 41.1647C78.662 41.1424 78.6851 41.1186 78.7066 41.0932L78.8788 40.8975L79.0666 40.679C79.1852 40.5361 79.3009 40.3833 79.4167 40.2504C79.5325 40.1176 79.6243 39.9847 79.7245 39.849C79.8247 39.7133 79.8996 39.6119 79.9857 39.4948L80.2427 39.1248L80.477 38.7705L80.6945 38.4248C80.7636 38.312 80.8356 38.1977 80.8992 38.082L80.9387 38.0163V37.9891L81.0799 37.7492L81.262 37.4206L81.43 37.0978C81.4865 36.9906 81.5387 36.8849 81.5924 36.7749L81.7449 36.4621L81.7646 36.4178V36.3978C81.8042 36.315 81.8437 36.2292 81.8804 36.1464C81.9171 36.0635 81.9722 35.9393 82.0216 35.8507C82.071 35.7621 82.1105 35.6436 82.1543 35.5379C82.1981 35.4322 82.2362 35.3336 82.2771 35.2422L82.3957 34.9465C82.4155 34.8965 82.4324 34.8436 82.4522 34.7922V34.765C82.4603 34.7203 82.4761 34.6772 82.4988 34.6379C82.5355 34.5379 82.568 34.4336 82.6047 34.3422L82.7035 34.0465C82.736 33.9465 82.7656 33.8451 82.7995 33.7508L82.8885 33.4551C82.9181 33.3523 82.9449 33.2509 82.9704 33.1594C82.9775 33.1394 82.9832 33.1189 82.9873 33.098V33.0809L83.0466 32.8566C83.0692 32.7537 83.096 32.6523 83.1186 32.5609C83.1412 32.4695 83.168 32.3566 83.1878 32.2652C83.2075 32.1738 83.2344 32.0609 83.2541 31.9695C83.2739 31.8781 83.2965 31.7652 83.3163 31.6738C83.336 31.5824 83.353 31.4695 83.3727 31.3781V31.3538C83.3897 31.2595 83.4052 31.1653 83.4193 31.0581L83.4687 30.7481C83.4753 30.6486 83.4895 30.5498 83.5111 30.4525C83.5238 30.3639 83.5379 30.2425 83.5478 30.1396C83.5577 30.0368 83.5704 29.9325 83.5845 29.8268C83.5866 29.7277 83.5956 29.6289 83.6113 29.5311V29.5068C83.6113 29.4039 83.6311 29.2968 83.6382 29.1911L83.6579 28.8754C83.6553 28.7675 83.661 28.6596 83.6749 28.5526V27.6712L83.7624 27.3941Z" fill="#37DB5A"/>
<path d="M70.9498 6.91959C69.2779 4.72351 67.1212 2.95388 64.6522 1.75233C62.1831 0.550781 59.4704 -0.0493357 56.7311 6.58538e-06C53.991 -0.047873 51.2777 0.552849 48.8078 1.75425C46.3378 2.95564 44.1796 4.72446 42.5052 6.91959C39.2837 11.2851 37.5751 16.6038 37.6442 22.0515C37.575 27.5023 39.2835 32.8242 42.5052 37.1935C44.179 39.3893 46.3371 41.1586 48.8072 42.36C51.2773 43.5615 53.9908 44.1618 56.7311 44.113C59.4699 44.1626 62.1821 43.5632 64.6511 42.3627C67.12 41.1621 69.277 39.3939 70.9498 37.1992C74.1758 32.8321 75.8848 27.5088 75.8108 22.0572C75.8848 16.607 74.1758 11.285 70.9498 6.91959ZM56.7311 34.4736C51.2757 34.4736 49.4431 28.2297 49.4431 22.0615C49.4431 15.8933 51.2785 9.64656 56.7311 9.64656C62.1836 9.64656 63.9965 15.9005 63.9965 22.0615C63.9965 28.2226 62.1808 34.4736 56.7311 34.4736Z" fill="white"/>
<path d="M96.2333 40.1276H86.2106L92.1573 46.1443H102.181V25.2728L96.2333 19.256V40.1276Z" fill="#37DB5A"/>
<path d="M111.202 26.1441L100.565 8.04522L94.6181 2.02844L105.255 20.1273L111.202 26.1441Z" fill="#FFBB00"/>
<path d="M114.275 19.256L105.254 34.5979L111.2 40.6147L120.222 25.2728L114.275 19.256Z" fill="#37DB5A"/>
<path d="M124.298 2.02844V40.7589H114.274L120.221 46.1443H130.245V7.41383L124.298 2.02844Z" fill="#FFBB00"/>
<path d="M113.893 0L103.249 18.0989L92.6133 0H84.2057V43.2702H94.2299V22.3986L103.252 37.7406L112.269 22.3986V43.2702H122.293V0H113.893Z" fill="white"/>
<path d="M149.648 18.2403L146.98 28.1326L152.926 34.1493L155.592 24.2542L149.648 18.2403Z" fill="#FF5E5E"/>
<path d="M154.882 35.4007H144.417L143.136 40.129H132.771L138.717 46.1458H149.083L150.364 41.4175H160.828L154.882 35.4007Z" fill="#FFBB00"/>
<path d="M160.772 7.41383L154.825 2.02844L166.525 40.7589H156.162L162.109 46.1443H172.471L160.772 7.41383Z" fill="#4CE0C3"/>
<path d="M152.82 0H142.456L130.766 43.2702H141.132L142.412 38.5419H152.89L154.17 43.2702H164.537L152.82 0ZM144.965 29.0668L147.633 19.1745L150.316 29.0668H144.965Z" fill="white"/>
<path d="M192.695 9.30944C191.687 8.31806 190.491 7.5426 189.179 7.02939C187.867 6.51618 186.467 6.27576 185.061 6.32248V30.6624L191.005 36.6763V12.3393C192.411 12.2911 193.811 12.5304 195.123 13.0429C196.435 13.5554 197.631 14.3306 198.639 15.3219L192.695 9.30944Z" fill="#BC47FF"/>
<path d="M213.396 24.1443V23.2472L213.376 22.9458C213.38 22.8452 213.372 22.7446 213.354 22.6458L213.324 22.3415C213.32 22.2385 213.309 22.136 213.291 22.0344C213.279 21.9301 213.269 21.8301 213.255 21.7273L213.215 21.4159L213.166 21.1016C213.149 20.9945 213.133 20.8873 213.114 20.7673C213.094 20.6473 213.077 20.5531 213.057 20.4331C213.037 20.3131 213.025 20.2731 213.01 20.1931V20.1731C213.012 20.1507 213.012 20.1283 213.01 20.1059L212.941 19.7717L212.862 19.4374C212.835 19.3203 212.806 19.2031 212.776 19.1031C212.746 19.0032 212.66 18.8832 212.628 18.7489C212.595 18.6146 212.561 18.5046 212.525 18.3818C212.488 18.2589 212.475 18.2218 212.453 18.1375V18.1046C212.448 18.0682 212.437 18.0329 212.42 18.0004C212.337 17.7308 212.249 17.4637 212.153 17.199C212.104 17.0561 212.05 16.9133 211.995 16.7704C211.94 16.6276 211.88 16.469 211.82 16.319C211.788 16.239 211.754 16.1619 211.724 16.0848L211.611 15.8205C211.535 15.6505 211.463 15.4862 211.384 15.3119C211.305 15.1377 211.209 14.9448 211.12 14.7606C211.031 14.5763 210.935 14.3991 210.838 14.222V14.1892C210.833 14.1776 210.828 14.1665 210.821 14.1563C210.692 13.9192 210.559 13.682 210.424 13.4521C210.246 13.1449 210.057 12.8435 209.859 12.5464L209.817 12.4893C209.56 12.095 209.269 11.7236 208.985 11.3465C208.844 11.1593 208.721 10.9651 208.573 10.7851C208.129 10.2377 207.657 9.7133 207.161 9.21375L201.217 3.19983C201.714 3.69943 202.185 4.22386 202.629 4.77116C202.77 4.95115 202.903 5.14542 203.041 5.3297C203.324 5.70682 203.606 6.07823 203.873 6.47249C204.236 7.02388 204.579 7.58813 204.889 8.17239C204.891 8.18331 204.891 8.19432 204.889 8.20524C205.214 8.80874 205.508 9.42855 205.77 10.0623C206.048 10.716 206.292 11.3835 206.503 12.0621C206.505 12.0721 206.505 12.0822 206.503 12.0921C206.712 12.7698 206.886 13.4578 207.026 14.1535C207.027 14.16 207.027 14.1669 207.026 14.1734C207.308 15.5864 207.45 17.0245 207.449 18.466C207.449 19.1946 207.414 19.9164 207.343 20.6316C207.275 21.3437 207.164 22.0511 207.013 22.7501C206.873 23.4466 206.699 24.1356 206.491 24.8142V24.8371C206.28 25.5159 206.035 26.1834 205.758 26.837C205.475 27.4855 205.193 28.0969 204.877 28.7011L204.857 28.734C204.538 29.3355 204.189 29.92 203.811 30.4853V30.5325C203.441 31.0838 203.047 31.6171 202.629 32.1324C202.599 32.1724 202.567 32.2095 202.533 32.2495C202.11 32.7609 201.672 33.2494 201.212 33.7365C200.967 33.9865 200.667 34.2708 200.309 34.5779C200.134 34.7322 199.942 34.8922 199.745 35.0593C198.484 36.0686 197.118 36.9369 195.673 37.6492C193.76 38.59 191.73 39.2628 189.637 39.649C188.137 39.9265 186.615 40.0651 185.09 40.0633H175.039L180.983 46.0772H191.007C192.532 46.0806 194.054 45.942 195.554 45.663C197.648 45.2778 199.68 44.605 201.594 43.6631C203.038 42.9501 204.403 42.0818 205.663 41.0732C205.868 40.9066 206.06 40.7461 206.238 40.5918C206.591 40.2847 206.899 40.0004 207.14 39.7533L207.47 39.3919C207.712 39.1348 207.949 38.8705 208.176 38.6034L208.459 38.2691L208.55 38.152C208.597 38.0948 208.646 38.0377 208.692 37.9777C208.833 37.7996 208.972 37.6192 209.108 37.4363C209.231 37.2763 209.345 37.1021 209.461 36.9492C209.577 36.7964 209.643 36.6849 209.732 36.5521V36.5321L209.755 36.4992L210.029 36.0707L210.276 35.6693C210.352 35.5393 210.428 35.4122 210.5 35.2822L210.708 34.9108C210.73 34.8679 210.754 34.8208 210.78 34.7765V34.7436L210.883 34.5494L211.061 34.2151L211.229 33.8808C211.281 33.7665 211.335 33.6565 211.384 33.5466L211.532 33.2123C211.575 33.1094 211.621 33.008 211.665 32.9052V32.8852L211.806 32.5509L211.932 32.2166L212.048 31.9052L212.156 31.5938C212.193 31.4938 212.225 31.3938 212.259 31.2895C212.293 31.1853 212.326 31.0924 212.355 30.9924C212.361 30.9508 212.374 30.9103 212.392 30.8724V30.8496C212.402 30.7966 212.418 30.7448 212.439 30.6953C212.451 30.6424 212.498 30.501 212.525 30.401C212.552 30.301 212.581 30.2068 212.607 30.1153C212.632 30.0239 212.656 29.9253 212.679 29.8296C212.701 29.7339 212.728 29.6396 212.751 29.5439C212.773 29.4482 212.793 29.354 212.813 29.2582C212.833 29.1625 212.855 29.0683 212.875 28.9725C212.895 28.8768 212.902 28.8483 212.912 28.7883V28.7711C212.913 28.7435 212.913 28.7159 212.912 28.6883C212.931 28.5954 212.948 28.5011 212.968 28.4026L213.018 28.1169C213.025 28.0208 213.039 27.9253 213.06 27.8312C213.073 27.7383 213.09 27.6441 213.102 27.5455C213.115 27.4469 213.129 27.3555 213.139 27.2598C213.149 27.1641 213.166 27.0727 213.176 26.9741L213.205 26.6884V26.6255L213.225 26.4213C213.221 26.3255 213.229 26.2295 213.248 26.1356C213.27 26.0384 213.248 25.9456 213.267 25.8499C213.287 25.7542 213.267 25.6556 213.284 25.5642C213.292 25.4691 213.292 25.3735 213.284 25.2785V24.1186L213.396 24.1443Z" fill="#4CE0C3"/>
<path d="M203.744 13.2178C202.679 10.6502 201.131 8.31691 199.184 6.3482C194.837 2.17866 189.047 -0.100449 183.058 1.1706e-05H173.034V43.2702H183.058C189.048 43.3751 194.84 41.0954 199.186 36.9221C202.19 33.8793 204.229 29.9988 205.041 25.7771C205.854 21.5554 205.403 17.1844 203.746 13.2235L203.744 13.2178ZM183.058 33.8051V9.46515C190.408 9.46515 194.09 15.2691 194.09 21.6401C194.09 28.0112 190.4 33.8051 183.058 33.8051Z" fill="white"/>
<path d="M236.593 16.379L230.64 10.3622H215.655L221.602 16.379H236.593Z" fill="#BC47FF"/>
<path d="M243.049 2.02844V10.2879L227.4 35.8335L233.347 41.8546L249 16.3047V8.04522L243.049 2.02844Z" fill="#37DB5A"/>
<path d="M243.049 40.1276H215.655L221.602 46.1444H249V36.6821L243.049 30.661V40.1276Z" fill="#BC47FF"/>
<path d="M241.04 0H213.65V9.46514H228.635L213.65 33.9151V43.2702H241.04V33.8051H225.395L241.04 8.2595V0Z" fill="white"/>
</g>
<defs>
<clipPath id="clip0_1_73">
<rect width="249" height="47" fill="white"/>
</clipPath>
</defs>
</svg>
